<svg width="178" height="44" viewBox="0 0 178 44" fill="none" xmlns="http://www.w3.org/2000/svg">
<path d="M31.6972 31.0817C31.6972 33.0476 31.3074 34.7976 30.5303 36.3331C29.7516 37.8686 28.6772 39.1589 27.3049 40.2039C25.9327 41.2482 24.2843 42.0464 22.3598 42.5994C20.4345 43.1524 18.346 43.4293 16.0942 43.4293C13.1044 43.4293 10.2899 43.0094 7.64762 42.1698C5.00613 41.3317 2.45717 39.9075 0 37.9003L3.93178 32.8023C5.77428 34.1536 7.72962 35.2083 9.79783 35.966C11.8653 36.7243 13.944 37.1028 16.0325 37.1028C18.817 37.1028 20.8949 36.5415 22.268 35.416C23.6395 34.292 24.3257 32.8716 24.3257 31.1532C24.3257 29.969 24.0495 29.0075 23.4966 28.2717C22.9436 27.5359 22.1958 26.9227 21.2546 26.4322C20.3126 25.9424 19.2375 25.5535 18.03 25.2676C16.8217 24.9817 15.5623 24.6747 14.2525 24.3467C12.6139 23.9796 11.0272 23.5093 9.49162 22.9368C7.95608 22.3643 6.60486 21.618 5.43722 20.6978C4.27033 19.7785 3.32764 18.6537 2.6114 17.3258C1.89442 15.9972 1.5363 14.3713 1.5363 12.4506C1.5363 10.6517 1.86357 8.99432 2.51886 7.4821C3.17341 5.96913 4.1161 4.66079 5.34468 3.5571C6.57326 2.4534 8.04711 1.58521 9.76698 0.95173C11.4868 0.317502 13.4114 0 15.5412 0C18.0797 0 20.588 0.254306 23.0655 0.760636C25.5429 1.26772 27.9083 2.23145 30.1609 3.65038L27.0281 9.39833C25.1442 8.25325 23.2701 7.45427 21.4073 7.00286C19.543 6.55296 17.711 6.32724 15.9091 6.32724C14.9258 6.32724 13.9944 6.45062 13.1142 6.69589C12.2332 6.94115 11.4552 7.3098 10.7796 7.80184C10.104 8.29312 9.56083 8.91758 9.15155 9.6752C8.74228 10.4336 8.53764 11.3243 8.53764 12.3475C8.53764 13.3715 8.80397 14.2314 9.33663 14.9281C9.86854 15.6248 10.575 16.2078 11.456 16.678C12.3362 17.1498 13.3391 17.538 14.4654 17.8449C15.5916 18.1519 16.7691 18.4287 17.9977 18.6755C20.0042 19.1269 21.8467 19.6581 23.5259 20.272C25.2044 20.8867 26.6481 21.6751 27.8564 22.6374C29.0639 23.5996 30.0066 24.756 30.6822 26.108C31.3578 27.4599 31.6972 29.1158 31.6972 31.0817Z" fill="white"/>
<path d="M76.7239 15.1741C75.1515 13.2489 72.7741 12.2866 69.5894 12.2866C69.0582 12.2866 68.4767 12.319 67.8447 12.3799C67.2112 12.4424 66.4972 12.5981 65.7012 12.8449C64.9045 13.0939 64.0077 13.4452 63.0071 13.8996C62.0072 14.3548 60.8945 14.9544 59.6697 15.6985L59.055 12.6553H58.873H53.1581V33.9174C49.9952 36.1232 47.2838 37.2262 45.0237 37.2262C43.7071 37.2262 42.5756 36.8169 41.6284 35.9968C40.6819 35.1783 40.2087 33.7458 40.2087 31.6972V12.6545H33.6971V32.2494C33.6971 35.65 34.536 38.3622 36.216 40.3883C37.8945 42.4159 40.393 43.4293 43.7101 43.4293C44.7333 43.4293 45.9724 43.2344 47.4267 42.8462C48.8803 42.4572 50.795 41.5461 53.1702 40.1122L53.7788 43.0614H53.9353H59.6697H59.6817V21.6691C61.2331 20.6926 62.7031 19.9395 64.092 19.4091C65.4838 18.8787 66.7335 18.6123 67.8387 18.6123C69.1899 18.6123 70.3162 19.0104 71.2175 19.8071C72.118 20.6038 72.5687 22.0453 72.5687 24.1271V43.0606H79.0795V23.1573C79.0802 19.7604 78.2948 17.0986 76.7239 15.1741Z" fill="white"/>
<path d="M97.2963 3.8084V43.4293H94.3479V3.8084H81.0795V1.10522H110.441V3.8084H97.2963Z" fill="white"/>
<path d="M136.279 32.4345C136.279 35.8742 135.191 38.5668 133.014 40.5117C130.838 42.4572 127.94 43.4293 124.328 43.4293C122.562 43.4293 120.95 43.1727 119.494 42.6611C118.035 42.1495 116.782 41.4122 115.737 40.45C114.689 39.4885 113.878 38.3411 113.304 37.0102C112.729 35.6801 112.441 34.1746 112.441 32.4954V23.2814C112.441 21.6443 112.759 20.1592 113.395 18.8275C114.032 17.4974 114.893 16.3703 115.982 15.4495C117.071 14.5278 118.333 13.8124 119.77 13.3C121.207 12.7884 122.745 12.5319 124.39 12.5319C126.072 12.5319 127.643 12.7892 129.104 13.3C130.562 13.8131 131.824 14.5286 132.891 15.4495C133.959 16.3711 134.789 17.4981 135.384 18.8275C135.979 20.1592 136.279 21.6443 136.279 23.2814V32.4345H136.279ZM133.515 24.1014C133.515 22.4598 133.238 21.0642 132.685 19.9146C132.133 18.7666 131.426 17.8314 130.567 17.1129C129.707 16.3952 128.732 15.8715 127.646 15.542C126.56 15.214 125.486 15.05 124.42 15.05C123.315 15.05 122.209 15.2147 121.104 15.542C119.999 15.8715 119.016 16.3952 118.155 17.1129C117.295 17.8314 116.588 18.7658 116.036 19.9146C115.484 21.0642 115.207 22.4606 115.207 24.1014V31.798C115.207 33.4802 115.462 34.8976 115.975 36.0457C116.487 37.1961 117.162 38.1297 118.002 38.8482C118.841 39.5667 119.814 40.0896 120.92 40.4184C122.025 40.7471 123.192 40.9104 124.42 40.9104C125.65 40.9104 126.807 40.7374 127.892 40.3883C128.978 40.0384 129.942 39.4945 130.781 38.7557C131.62 38.0169 132.286 37.0734 132.778 35.9239C133.269 34.7735 133.515 33.3982 133.515 31.798V24.1014Z" fill="white"/>
<path d="M159.708 43.0614L159.226 38.8836C157.833 39.7435 156.595 40.4605 155.511 41.0331C154.425 41.6079 153.442 42.0781 152.562 42.4467C151.68 42.8146 150.872 43.0697 150.135 43.2141C149.398 43.3571 148.681 43.4293 147.986 43.4293C144.872 43.4293 142.478 42.5799 140.798 40.8803C139.119 39.1808 138.279 36.5912 138.279 33.1093V12.8998H141.044V32.3901C141.044 35.3739 141.679 37.5098 142.948 38.7971C144.217 40.0836 145.978 40.7261 148.23 40.7261C149.705 40.7261 151.403 40.2882 153.329 39.4087C155.253 38.5308 157.218 37.3759 159.226 35.9457V12.8998H161.99V43.0614H159.708Z" fill="white"/>
<path d="M177.811 16.0934C175.067 16.3808 172.794 16.9752 170.993 17.875C169.19 18.7763 167.778 19.5745 166.754 20.2712V43.4292H163.99V13.2676H166.324L166.754 17.7523H166.816C167.429 17.2204 168.156 16.6765 168.996 16.1243C169.834 15.572 170.746 15.0604 171.729 14.5887C172.712 14.1185 173.725 13.7393 174.77 13.4519C175.814 13.166 176.828 12.9817 177.81 12.8989V16.0934H177.811Z" fill="white"/>
</svg>
